<svg width="16" height="16" viewBox="0 0 16 16" fill="none" xmlns="http://www.w3.org/2000/svg">
<path d="M10.0285 9.14955L9.7592 9.49775L10.0705 9.80902L14.3836 14.1222L14.1209 14.3842L9.8072 10.0722L9.4963 9.76138L9.14827 10.0299C8.32031 10.6688 7.30985 11.0156 6.24219 11.0156C4.96498 11.0156 3.76872 10.5198 2.86773 9.61727L2.86742 9.61695C1.96609 8.71563 1.46875 7.51734 1.46875 6.24219C1.46875 4.96498 1.96453 3.76872 2.86711 2.86773L2.86742 2.86742C3.76875 1.96609 4.96703 1.46875 6.24219 1.46875C7.51772 1.46875 8.71572 1.96459 9.61664 2.86711C10.5185 3.77057 11.0156 4.96562 11.0156 6.24219C11.0156 7.30998 10.6687 8.32194 10.0285 9.14955ZM13.8695 14.6351C13.8696 14.6351 13.8696 14.635 13.8696 14.635L13.8695 14.6351ZM14.3718 14.635C14.372 14.6352 14.3722 14.6354 14.3724 14.6356L14.3722 14.6354L14.3718 14.635ZM14.9891 14.0205L14.8873 14.1224L14.8872 14.1223L14.9891 14.0205ZM14.8871 14.1224L14.8871 14.1224L14.8872 14.1225L14.6356 14.3742C14.6356 14.3741 14.6355 14.3741 14.6355 14.3741L14.8871 14.1225L14.8871 14.1225L14.8871 14.1224ZM9.3797 9.38053L9.38012 9.38012C10.2175 8.54273 10.6797 7.42588 10.6797 6.24219C10.6797 5.05816 10.2173 3.9434 9.38053 3.10468C8.54261 2.26477 7.42537 1.80469 6.24219 1.80469C5.05816 1.80469 3.9434 2.2671 3.10468 3.10384L3.10426 3.10426C2.26687 3.94165 1.80469 5.0585 1.80469 6.24219C1.80469 7.42622 2.2671 8.54097 3.10384 9.3797L3.10468 9.38053C3.9434 10.2173 5.05816 10.6797 6.24219 10.6797C7.42622 10.6797 8.54097 10.2173 9.3797 9.38053Z" fill="#8C8C8C" stroke="black"/>
</svg>
