<svg width="15" height="13" viewBox="0 0 15 13" fill="none" xmlns="http://www.w3.org/2000/svg">
<path d="M13.2386 10.0688H14.4216C14.7247 10.0688 14.9732 9.82187 14.9732 9.51719L13.2386 10.0688ZM13.2386 10.0688C13.1849 9.96427 13.1225 9.86423 13.0521 9.76984L12.6513 10.0688V10.5688H12.9039C12.9493 10.7182 12.9732 10.8745 12.9732 11.0328C12.9732 11.9172 12.2544 12.6359 11.3701 12.6359C10.4857 12.6359 9.76693 11.9172 9.76693 11.0328L13.2386 10.0688ZM13.3451 8.00156L5.58256 8.01562L5.36085 8.46719H5.11537V8.96719L5.56419 9.18755L13.3451 8.00156ZM13.3451 8.00156C13.6076 8.00156 13.8326 7.81406 13.8794 7.55469L13.3451 8.00156ZM4.66655 8.74683L4.31287 9.46719H5.11537H14.4198C14.4339 9.4672 14.4474 9.47278 14.4574 9.48273C14.4671 9.49231 14.4727 9.50517 14.4732 9.51871C14.4723 9.54568 14.449 9.56875 14.4216 9.56875H12.6513H11.6547L12.2505 10.3677C12.3938 10.5599 12.4732 10.7946 12.4732 11.0328C12.4732 11.641 11.9783 12.1359 11.3701 12.1359C10.7618 12.1359 10.2669 11.641 10.2669 11.0328V11.0324C10.2667 10.7932 10.3444 10.5605 10.4882 10.3695L11.0911 9.56875H10.0888H7.57162H6.57501L7.1708 10.3677C7.31414 10.5599 7.39349 10.7946 7.39349 11.0328C7.39349 11.641 6.8986 12.1359 6.29037 12.1359C5.68214 12.1359 5.18724 11.641 5.18724 11.0328L5.18724 11.0324C5.18703 10.7932 5.26472 10.5605 5.40856 10.3695L6.01144 9.56875H5.00912H4.02787C4.00799 9.56875 3.99122 9.55853 3.98214 9.54052L3.98216 9.54051L3.98033 9.53697C3.97639 9.52929 3.97467 9.52066 3.97537 9.51206C3.97607 9.50346 3.97916 9.49522 3.9843 9.48828L3.99741 9.47059L4.00891 9.45182L5.17766 7.544L5.28097 7.37536L5.24097 7.18168L4.33316 2.78636L4.33316 2.78636L4.33279 2.78458L3.96404 1.03146L3.88052 0.634375H3.47474H1.50756C1.49388 0.634375 1.48077 0.628943 1.4711 0.619273C1.46143 0.609603 1.45599 0.596488 1.45599 0.582813C1.45599 0.569137 1.46143 0.556022 1.4711 0.546352C1.48077 0.536682 1.49388 0.53125 1.50756 0.53125H3.92162C3.93183 0.53125 3.94374 0.534856 3.95481 0.543811C3.96585 0.55274 3.97112 0.562952 3.9729 0.571451L3.97317 0.572725L4.05755 0.9696L4.14146 1.36428L4.54496 1.36562L14.4187 1.39843C14.4188 1.39843 14.4189 1.39843 14.419 1.39843C14.4256 1.39851 14.4322 1.40002 14.4383 1.40286C14.4443 1.40567 14.4496 1.40971 14.4539 1.41471C14.4608 1.42321 14.4647 1.43561 14.4622 1.44972C14.4622 1.44974 14.4622 1.44975 14.4622 1.44977L13.3874 7.46577C13.3874 7.46585 13.3874 7.46593 13.3874 7.46602C13.3834 7.48722 13.3657 7.50156 13.3451 7.50156L13.3441 7.50156L5.58165 7.51563L5.27075 7.51619L5.13373 7.79527L4.66655 8.74683ZM4.77796 1.45313L4.15956 1.45109L4.28705 2.0562L5.33548 7.03276L5.41926 7.43041L5.82563 7.42969L12.8928 7.41719L13.3107 7.41645L13.3841 7.00509L14.2654 2.07072L14.37 1.48478L13.7748 1.48282L4.77796 1.45313ZM5.29662 11.0328C5.29662 11.5808 5.74235 12.0266 6.29037 12.0266C6.55393 12.0266 6.80669 11.9219 6.99306 11.7355C7.17942 11.5491 7.28412 11.2964 7.28412 11.0328C7.28412 10.4848 6.83839 10.0391 6.29037 10.0391C5.74235 10.0391 5.29662 10.4848 5.29662 11.0328ZM10.3763 11.0328C10.3763 11.5808 10.822 12.0266 11.3701 12.0266C11.6336 12.0266 11.8864 11.9219 12.0727 11.7355C12.2591 11.5491 12.3638 11.2964 12.3638 11.0328C12.3638 10.4848 11.9181 10.0391 11.3701 10.0391C10.822 10.0391 10.3763 10.4848 10.3763 11.0328Z" fill="#8C8C8C" stroke="black"/>
</svg>
